# xmcd
#
# Track frame offsets:
#   150
#   16291
#   28437
#   43580
#   65363
#   84825
#   103747
#   121454
#   138783
#   155977
#   167260
#   181296
#   196169
#   212553
#   229747
#
# Disc length: 3279 seconds
#
# Revision: 0
# Processed by: cddbd v1.5.2PL0 Copyright (c) Steve Scherf et al.
# Submitted via: uFREEDB ActiveX Control 1.5
#
DISCID=c30ccd0f
DTITLE=Milionário and José Rico - Especial Vol. 1
DYEAR=1900
DGENRE=Country
TTITLE0=Viva a Vida
TTITLE1=Vinte Anos
TTITLE2=Você Agora vai Decidir (Duas Camisas)
TTITLE3=Lembrança
TTITLE4=Sonhei com Você
TTITLE5=Levando a Vida
TTITLE6=Vontade Dividida
TTITLE7=Homens
TTITLE8=Praia Deserta
TTITLE9=O Tropeiro
TTITLE10=A Fossa
TTITLE11=Cabecinha no Ombro
TTITLE12=Conselho de Amigo
TTITLE13=Meu Mundo Vazio
TTITLE14=Sonho de um Caminhoneiro
EXTD=
EXTT0=
EXTT1=
EXTT2=
EXTT3=
EXTT4=
EXTT5=
EXTT6=
EXTT7=
EXTT8=
EXTT9=
EXTT10=
EXTT11=
EXTT12=
EXTT13=
EXTT14=
PLAYORDER=
